{"asset":{"version":"2.0","generator":"THREE.GLTFExporter r175"},"scenes":[{"name":"AuxScene","nodes":[22]}],"scene":0,"nodes":[{"mesh":0},{"mesh":1},{"mesh":2},{"mesh":3},{"mesh":4},{"mesh":5},{"mesh":6},{"mesh":7},{"mesh":8},{"mesh":9},{"mesh":10},{"mesh":11},{"mesh":12},{"mesh":13},{"mesh":14},{"mesh":15},{"mesh":16},{"mesh":17},{"matrix":[0.15060847309617625,0,-0.15060847309617628,0,0,-0.21299254526091588,0,0,0.15060847309617628,0,0.15060847309617625,0,0,0,0,1],"children":[0,1,2,3,4,5,6,7,8,9,10,11,12,13,14,15,16,17]},{"children":[18]},{"matrix":[1,0,0,0,0,1,0,0,0,0,1,0,-35.64302073588095,50.00493920014435,35.04058687940411,1],"children":[19]},{"children":[20]},{"children":[21]}],"bufferViews":[{"buffer":0,"byteOffset":0,"byteLength":9593856,"target":34962,"byteStride":12},{"buffer":0,"byteOffset":9593856,"byteLength":6395904,"target":34962,"byteStride":8},{"buffer":0,"byteOffset":15989760,"byteLength":9593856,"target":34962,"byteStride":12},{"buffer":0,"byteOffset":25583616,"byteLength":9593856,"target":34962,"byteStride":12},{"buffer":0,"byteOffset":35177472,"byteLength":6395904,"target":34962,"byteStride":8},{"buffer":0,"byteOffset":41573376,"byteLength":9593856,"target":34962,"byteStride":12},{"buffer":0,"byteOffset":51167232,"byteLength":9584496,"target":34962,"byteStride":12},{"buffer":0,"byteOffset":60751728,"byteLength":6389664,"target":34962,"byteStride":8},{"buffer":0,"byteOffset":67141392,"byteLength":9584496,"target":34962,"byteStride":12},{"buffer":0,"byteOffset":76725888,"byteLength":9593856,"target":34962,"byteStride":12},{"buffer":0,"byteOffset":86319744,"byteLength":6395904,"target":34962,"byteStride":8},{"buffer":0,"byteOffset":92715648,"byteLength":9593856,"target":34962,"byteStride":12},{"buffer":0,"byteOffset":102309504,"byteLength":9593856,"target":34962,"byteStride":12},{"buffer":0,"byteOffset":111903360,"byteLength":6395904,"target":34962,"byteStride":8},{"buffer":0,"byteOffset":118299264,"byteLength":9593856,"target":34962,"byteStride":12},{"buffer":0,"byteOffset":127893120,"byteLength":9593856,"target":34962,"byteStride":12},{"buffer":0,"byteOffset":137486976,"byteLength":6395904,"target":34962,"byteStride":8},{"buffer":0,"byteOffset":143882880,"byteLength":9593856,"target":34962,"byteStride":12},{"buffer":0,"byteOffset":153476736,"byteLength":10782576,"target":34962,"byteStride":12},{"buffer":0,"byteOffset":164259312,"byteLength":7188384,"target":34962,"byteStride":8},{"buffer":0,"byteOffset":171447696,"byteLength":10782576,"target":34962,"byteStride":12},{"buffer":0,"byteOffset":182230272,"byteLength":10782576,"target":34962,"byteStride":12},{"buffer":0,"byteOffset":193012848,"byteLength":7188384,"target":34962,"byteStride":8},{"buffer":0,"byteOffset":200201232,"byteLength":10782576,"target":34962,"byteStride":12},{"buffer":0,"byteOffset":210983808,"byteLength":10791936,"target":34962,"byteStride":12},{"buffer":0,"byteOffset":221775744,"byteLength":7194624,"target":34962,"byteStride":8},{"buffer":0,"byteOffset":228970368,"byteLength":10791936,"target":34962,"byteStride":12},{"buffer":0,"byteOffset":239762304,"byteLength":10791936,"target":34962,"byteStride":12},{"buffer":0,"byteOffset":250554240,"byteLength":7194624,"target":34962,"byteStride":8},{"buffer":0,"byteOffset":257748864,"byteLength":10791936,"target":34962,"byteStride":12},{"buffer":0,"byteOffset":268540800,"byteLength":10791936,"target":34962,"byteStride":12},{"buffer":0,"byteOffset":279332736,"byteLength":7194624,"target":34962,"byteStride":8},{"buffer":0,"byteOffset":286527360,"byteLength":10791936,"target":34962,"byteStride":12},{"buffer":0,"byteOffset":297319296,"byteLength":10791936,"target":34962,"byteStride":12},{"buffer":0,"byteOffset":308111232,"byteLength":7194624,"target":34962,"byteStride":8},{"buffer":0,"byteOffset":315305856,"byteLength":10791936,"target":34962,"byteStride":12},{"buffer":0,"byteOffset":326097792,"byteLength":4801536,"target":34962,"byteStride":12},{"buffer":0,"byteOffset":330899328,"byteLength":3201024,"target":34962,"byteStride":8},{"buffer":0,"byteOffset":334100352,"byteLength":4801536,"target":34962,"byteStride":12},{"buffer":0,"byteOffset":338901888,"byteLength":4801536,"target":34962,"byteStride":12},{"buffer":0,"byteOffset":343703424,"byteLength":3201024,"target":34962,"byteStride":8},{"buffer":0,"byteOffset":346904448,"byteLength":4801536,"target":34962,"byteStride":12},{"buffer":0,"byteOffset":351705984,"byteLength":4801536,"target":34962,"byteStride":12},{"buffer":0,"byteOffset":356507520,"byteLength":3201024,"target":34962,"byteStride":8},{"buffer":0,"byteOffset":359708544,"byteLength":4801536,"target":34962,"byteStride":12},{"buffer":0,"byteOffset":364510080,"byteLength":4801536,"target":34962,"byteStride":12},{"buffer":0,"byteOffset":369311616,"byteLength":3201024,"target":34962,"byteStride":8},{"buffer":0,"byteOffset":372512640,"byteLength":4801536,"target":34962,"byteStride":12},{"buffer":0,"byteOffset":377314176,"byteLength":4801536,"target":34962,"byteStride":12},{"buffer":0,"byteOffset":382115712,"byteLength":3201024,"target":34962,"byteStride":8},{"buffer":0,"byteOffset":385316736,"byteLength":4801536,"target":34962,"byteStride":12},{"buffer":0,"byteOffset":390118272,"byteLength":4801536,"target":34962,"byteStride":12},{"buffer":0,"byteOffset":394919808,"byteLength":3201024,"target":34962,"byteStride":8},{"buffer":0,"byteOffset":398120832,"byteLength":4801536,"target":34962,"byteStride":12}],"buffers":[{"byteLength":402922368,"uri":""}],"accessors":[{"bufferView":0,"componentType":5126,"count":799488,"max":[258.6294250488281,185.2667999267578,20.100000381469727],"min":[167.59088134765625,122.30535888671875,-0.6000000238418579],"type":"VEC3"},{"bufferView":1,"componentType":5126,"count":799488,"max":[258.0294189453125,184.66680908203125],"min":[124.05438232421875,-19.100000381469727],"type":"VEC2"},{"bufferView":2,"componentType":5126,"count":799488,"max":[1,0.9999993443489075,1],"min":[-1,-0.9999978542327881,-1],"type":"VEC3"},{"bufferView":3,"componentType":5126,"count":799488,"max":[302.5150146484375,225.8179473876953,20.100000381469727],"min":[268.2089538574219,121.87267303466797,-0.6000000238418579],"type":"VEC3"},{"bufferView":4,"componentType":5126,"count":799488,"max":[301.9150085449219,225.2179412841797],"min":[123.65839385986328,-19.100000381469727],"type":"VEC2"},{"bufferView":5,"componentType":5126,"count":799488,"max":[1,0.999988853931427,1],"min":[-0.9999966025352478,-1,-1],"type":"VEC3"},{"bufferView":6,"componentType":5126,"count":798708,"max":[363.5959167480469,286.1620788574219,20.100000381469727],"min":[272.329345703125,226.2733612060547,-0.6000000238418579],"type":"VEC3"},{"bufferView":7,"componentType":5126,"count":798708,"max":[362.99591064453125,285.56207275390625],"min":[229.85552978515625,-19.100000381469727],"type":"VEC2"},{"bufferView":8,"componentType":5126,"count":798708,"max":[0.9999952912330627,0.9999940395355225,1],"min":[-0.999996542930603,-0.9999999403953552,-1],"type":"VEC3"},{"bufferView":9,"componentType":5126,"count":799488,"max":[302.7442321777344,346.71063232421875,20.100000381469727],"min":[211.1815643310547,284.40435791015625,-0.6000000238418579],"type":"VEC3"},{"bufferView":10,"componentType":5126,"count":799488,"max":[344.91632080078125,346.110595703125],"min":[211.7815704345703,-19.100000381469727],"type":"VEC2"},{"bufferView":11,"componentType":5126,"count":799488,"max":[0.9999992251396179,0.9999999403953552,1],"min":[-0.9999968409538269,-0.9999995231628418,-1],"type":"VEC3"},{"bufferView":12,"componentType":5126,"count":799488,"max":[202.73477172851562,347.6715393066406,20.100000381469727],"min":[168.0898895263672,243.73948669433594,-0.6000000238418579],"type":"VEC3"},{"bufferView":13,"componentType":5126,"count":799488,"max":[345.9207458496094,347.071533203125],"min":[168.6898956298828,-19.100000381469727],"type":"VEC2"},{"bufferView":14,"componentType":5126,"count":799488,"max":[0.9999917149543762,0.9999711513519287,1],"min":[-0.9999997019767761,-0.9999991059303284,-1],"type":"VEC3"},{"bufferView":15,"componentType":5126,"count":799488,"max":[198.49118041992188,242.20001220703125,20.100000381469727],"min":[105.71107482910156,184.4412384033203,-0.6000000238418579],"type":"VEC3"},{"bufferView":16,"componentType":5126,"count":799488,"max":[238.0066680908203,241.60000610351562],"min":[106.31109619140625,-19.100000381469727],"type":"VEC2"},{"bufferView":17,"componentType":5126,"count":799488,"max":[0.9999750852584839,0.9999988079071045,1],"min":[-0.9999884366989136,-0.9999998211860657,-1],"type":"VEC3"},{"bufferView":18,"componentType":5126,"count":898548,"max":[358.1495666503906,208.545166015625,20.100000381469727],"min":[304.5813293457031,144.30908203125,-0.6000000238418579],"type":"VEC3"},{"bufferView":19,"componentType":5126,"count":898548,"max":[357.549560546875,207.94517517089844],"min":[146.35789489746094,-19.100000381469727],"type":"VEC2"},{"bufferView":20,"componentType":5126,"count":898548,"max":[0.9999954700469971,0.9999993443489075,1],"min":[-0.9999967813491821,-0.9999998807907104,-1],"type":"VEC3"},{"bufferView":21,"componentType":5126,"count":898548,"max":[358.1019592285156,325.4254455566406,20.100000381469727],"min":[304.9977111816406,260.735107421875,-0.6000000238418579],"type":"VEC3"},{"bufferView":22,"componentType":5126,"count":898548,"max":[357.501953125,324.825439453125],"min":[264.3309631347656,-19.100000381469727],"type":"VEC2"},{"bufferView":23,"componentType":5126,"count":898548,"max":[0.9999986290931702,0.9999988079071045,1],"min":[-0.9999907612800598,-0.9999987483024597,-1],"type":"VEC3"},{"bufferView":24,"componentType":5126,"count":899328,"max":[270.2179260253906,359.8365783691406,20.100000381469727],"min":[200.19241333007812,319.5274963378906,-0.6000000238418579],"type":"VEC3"},{"bufferView":25,"componentType":5126,"count":899328,"max":[358.03302001953125,359.2365417480469],"min":[200.79241943359375,-19.100000381469727],"type":"VEC2"},{"bufferView":26,"componentType":5126,"count":899328,"max":[0.999996542930603,0.9999969005584717,1],"min":[-0.9999885559082031,-0.9999997019767761,-1],"type":"VEC3"},{"bufferView":27,"componentType":5126,"count":899328,"max":[166.3318634033203,324.83673095703125,20.100000381469727],"min":[112.80167388916016,260.5785217285156,-0.6000000238418579],"type":"VEC3"},{"bufferView":28,"componentType":5126,"count":899328,"max":[322.7820739746094,324.2367248535156],"min":[113.40167999267578,-19.100000381469727],"type":"VEC2"},{"bufferView":29,"componentType":5126,"count":899328,"max":[0.9999920129776001,0.9999990463256836,1],"min":[-0.9999983906745911,-1,-1],"type":"VEC3"},{"bufferView":30,"componentType":5126,"count":899328,"max":[165.9860382080078,208.38861083984375,20.100000381469727],"min":[111.97488403320312,144.33912658691406,-0.6000000238418579],"type":"VEC3"},{"bufferView":31,"componentType":5126,"count":899328,"max":[204.36495971679688,207.78860473632812],"min":[112.57489013671875,-19.100000381469727],"type":"VEC2"},{"bufferView":32,"componentType":5126,"count":899328,"max":[1,0.9999987483024597,1],"min":[-0.9999914765357971,-1,-1],"type":"VEC3"},{"bufferView":33,"componentType":5126,"count":899328,"max":[270.5301513671875,149.73251342773438,20.100000381469727],"min":[200.49856567382812,109.49952697753906,-0.6000000238418579],"type":"VEC3"},{"bufferView":34,"componentType":5126,"count":899328,"max":[269.9301452636719,149.13250732421875],"min":[111.42833709716797,-19.100000381469727],"type":"VEC2"},{"bufferView":35,"componentType":5126,"count":899328,"max":[0.9999760985374451,0.9999927878379822,1],"min":[-0.9999988675117493,-1,-1],"type":"VEC3"},{"bufferView":36,"componentType":5126,"count":400128,"max":[242.4893798828125,116.28822326660156,20.100000381469727],"min":[228.17239379882812,102.0802993774414,-0.6000000238418579],"type":"VEC3"},{"bufferView":37,"componentType":5126,"count":400128,"max":[241.88937377929688,115.68821716308594],"min":[102.79560089111328,-19.100000381469727],"type":"VEC2"},{"bufferView":38,"componentType":5126,"count":400128,"max":[0.9999978542327881,0.9999922513961792,1],"min":[-0.999998152256012,-0.9999954104423523,-1],"type":"VEC3"},{"bufferView":39,"componentType":5126,"count":400128,"max":[133.82937622070312,179.01821899414062,20.100000381469727],"min":[119.51239013671875,164.810302734375,-0.6000000238418579],"type":"VEC3"},{"bufferView":40,"componentType":5126,"count":400128,"max":[177.0177764892578,178.418212890625],"min":[120.11239624023438,-19.100000381469727],"type":"VEC2"},{"bufferView":41,"componentType":5126,"count":400128,"max":[0.9999978542327881,0.9999922513961792,1],"min":[-0.999998152256012,-0.9999956488609314,-1],"type":"VEC3"},{"bufferView":42,"componentType":5126,"count":400128,"max":[133.67938232421875,304.7582092285156,20.100000381469727],"min":[119.36238861083984,290.55029296875,-0.6000000238418579],"type":"VEC3"},{"bufferView":43,"componentType":5126,"count":400128,"max":[302.7577819824219,304.158203125],"min":[119.96239471435547,-19.100000381469727],"type":"VEC2"},{"bufferView":44,"componentType":5126,"count":400128,"max":[0.9999978542327881,0.9999929070472717,1],"min":[-0.999998152256012,-0.9999956488609314,-1],"type":"VEC3"},{"bufferView":45,"componentType":5126,"count":400128,"max":[242.63937377929688,367.47821044921875,20.100000381469727],"min":[228.3223876953125,353.2702941894531,-0.6000000238418579],"type":"VEC3"},{"bufferView":46,"componentType":5126,"count":400128,"max":[365.477783203125,366.8782043457031],"min":[228.92239379882812,-19.100000381469727],"type":"VEC2"},{"bufferView":47,"componentType":5126,"count":400128,"max":[0.9999978542327881,0.9999929070472717,1],"min":[-0.999998152256012,-0.9999956488609314,-1],"type":"VEC3"},{"bufferView":48,"componentType":5126,"count":400128,"max":[351.7393798828125,304.4582214355469,20.100000381469727],"min":[337.4223937988281,290.25030517578125,-0.6000000238418579],"type":"VEC3"},{"bufferView":49,"componentType":5126,"count":400128,"max":[351.1393737792969,303.85821533203125],"min":[290.9656066894531,-19.100000381469727],"type":"VEC2"},{"bufferView":50,"componentType":5126,"count":400128,"max":[0.9999974966049194,0.9999929070472717,1],"min":[-0.9999984502792358,-0.9999956488609314,-1],"type":"VEC3"},{"bufferView":51,"componentType":5126,"count":400128,"max":[351.29937744140625,178.78822326660156,20.100000381469727],"min":[336.9823913574219,164.58030700683594,-0.6000000238418579],"type":"VEC3"},{"bufferView":52,"componentType":5126,"count":400128,"max":[350.6993713378906,178.18821716308594],"min":[165.2956085205078,-19.100000381469727],"type":"VEC2"},{"bufferView":53,"componentType":5126,"count":400128,"max":[0.9999982118606567,0.9999922513961792,1],"min":[-0.9999984502792358,-0.9999956488609314,-1],"type":"VEC3"}],"materials":[{"pbrMetallicRoughness":{"baseColorFactor":[0.6375968739867731,0.6653872982754769,0.7083757798856457,1],"metallicFactor":0,"roughnessFactor":0.3},"doubleSided":true,"extensions":{"KHR_materials_transmission":{"transmissionFactor":1},"KHR_materials_volume":{"thicknessFactor":0,"attenuationColor":[1,1,1]}}}],"meshes":[{"primitives":[{"mode":4,"attributes":{"POSITION":0,"TEXCOORD_0":1,"NORMAL":2},"material":0}]},{"primitives":[{"mode":4,"attributes":{"POSITION":3,"TEXCOORD_0":4,"NORMAL":5},"material":0}]},{"primitives":[{"mode":4,"attributes":{"POSITION":6,"TEXCOORD_0":7,"NORMAL":8},"material":0}]},{"primitives":[{"mode":4,"attributes":{"POSITION":9,"TEXCOORD_0":10,"NORMAL":11},"material":0}]},{"primitives":[{"mode":4,"attributes":{"POSITION":12,"TEXCOORD_0":13,"NORMAL":14},"material":0}]},{"primitives":[{"mode":4,"attributes":{"POSITION":15,"TEXCOORD_0":16,"NORMAL":17},"material":0}]},{"primitives":[{"mode":4,"attributes":{"POSITION":18,"TEXCOORD_0":19,"NORMAL":20},"material":0}]},{"primitives":[{"mode":4,"attributes":{"POSITION":21,"TEXCOORD_0":22,"NORMAL":23},"material":0}]},{"primitives":[{"mode":4,"attributes":{"POSITION":24,"TEXCOORD_0":25,"NORMAL":26},"material":0}]},{"primitives":[{"mode":4,"attributes":{"POSITION":27,"TEXCOORD_0":28,"NORMAL":29},"material":0}]},{"primitives":[{"mode":4,"attributes":{"POSITION":30,"TEXCOORD_0":31,"NORMAL":32},"material":0}]},{"primitives":[{"mode":4,"attributes":{"POSITION":33,"TEXCOORD_0":34,"NORMAL":35},"material":0}]},{"primitives":[{"mode":4,"attributes":{"POSITION":36,"TEXCOORD_0":37,"NORMAL":38},"material":0}]},{"primitives":[{"mode":4,"attributes":{"POSITION":39,"TEXCOORD_0":40,"NORMAL":41},"material":0}]},{"primitives":[{"mode":4,"attributes":{"POSITION":42,"TEXCOORD_0":43,"NORMAL":44},"material":0}]},{"primitives":[{"mode":4,"attributes":{"POSITION":45,"TEXCOORD_0":46,"NORMAL":47},"material":0}]},{"primitives":[{"mode":4,"attributes":{"POSITION":48,"TEXCOORD_0":49,"NORMAL":50},"material":0}]},{"primitives":[{"mode":4,"attributes":{"POSITION":51,"TEXCOORD_0":52,"NORMAL":53},"material":0}]}],"extensionsUsed":["KHR_materials_transmission","KHR_materials_volume"]}