<?xml version="1.0" encoding="UTF-8"?>
<svg id="Layer_1" data-name="Layer 1" xmlns="http://www.w3.org/2000/svg" viewBox="35 168 410 102">
  <defs>
    <style>
      .cls-1 {
        fill: #0f9347;
      }

      .cls-2 {
        fill: #8dc641;
      }
    </style>
  </defs>
  <path class="cls-1" d="M69.64,215.48h-11.01c-.86,0-1.56.7-1.56,1.56v43.82c0,.86-.7,1.56-1.56,1.56h-1.09c-3.1,0-4.69-1.06-4.69-4.61v-40.78c0-.86-.7-1.56-1.56-1.56h-13.17c-.86,0-1.56-.7-1.56-1.56v-1.09c0-2.04,1.33-3.99,4.61-3.99h34.22c.86,0,1.56.7,1.56,1.56v1.18c0,1.51-1.77,3.9-4.16,3.9Z"/>
  <path class="cls-1" d="M112.78,262.43c-3.63,0-5.05-1.42-5.05-4.43v-19.04c0-8.06-3.37-11.07-9.57-11.07-4.69,0-10.1,3.81-10.1,11.43v21.55c0,.86-.7,1.56-1.56,1.56h-.38c-3.37,0-4.78-1.42-4.78-4.43v-50.17c0-.86.7-1.56,1.56-1.56h.47c3.1,0,4.87,1.33,4.87,5.14v12.3c0,1.42,1.7,2.07,2.7,1.07,2.54-2.53,5.5-3.36,8.19-3.36,9.57,0,15.5,5.23,15.5,17.27v22.17c0,.86-.7,1.56-1.56,1.56h-.3Z"/>
  <path class="cls-1" d="M141.21,263.23c-8.24,0-15.41-4.78-15.41-11.96,0-8.68,6.73-13.38,18.78-13.38h3.84c.86,0,1.56-.7,1.56-1.56v-.3c0-5.93-2.92-8.33-9.48-8.33-6.02,0-10.45,2.3-12.75,5.49h-.44v-3.28c0-3.72,4.87-8.5,13.91-8.5,10.19,0,15.68,5.32,15.68,15.15v12.58c0,8.15-4.43,14.08-15.68,14.08ZM150.07,245.22c0-.86-.7-1.56-1.56-1.56h-3.93c-8.06,0-11.78,2.48-11.78,6.91,0,3.54,3.54,6.29,8.68,6.29,6.11,0,8.59-2.39,8.59-8.24v-3.4Z"/>
  <path class="cls-1" d="M177.47,215.18c-3.54,3.09-8,.48-8-3.24,0-2.57,2.13-4.78,4.61-4.78,3.51,0,6.03,4.15,3.7,7.67-.08.13-.19.25-.31.35ZM182.58,262.79c-7.97,0-12.05-3.9-12.05-11.96v-27.13c0-.86.7-1.56,1.56-1.56h.47c2.39,0,4.78,1.86,4.78,5.4v22.32c0,5.05,2.48,6.64,6.29,6.64h1.36c.86,0,1.56.7,1.56,1.56v.65c0,2.57-1.59,4.08-3.99,4.08Z"/>
  <path class="cls-1" d="M211.98,263.23c-11.25,0-17.89-8.24-17.89-20.02v-35.37c0-.86.7-1.56,1.56-1.56h1.71c1.77,0,3.81,1.33,3.81,4.69v13.44c0,1.39,1.68,2.09,2.66,1.11,2.6-2.61,6.26-4.1,10.19-4.1,9.21,0,16.92,7.17,16.92,20.2,0,12.31-7.53,21.61-18.96,21.61ZM212.16,227.8c-6.47,0-10.98,5.85-10.98,14.62,0,10.1,4.69,14.35,11.69,14.35s11.07-5.67,11.07-14.35c0-10.89-5.23-14.62-11.78-14.62Z"/>
  <path class="cls-1" d="M256.18,263.23c-8.24,0-15.41-4.78-15.41-11.96,0-8.68,6.73-13.38,18.78-13.38h3.84c.86,0,1.56-.7,1.56-1.56v-.3c0-5.93-2.92-8.33-9.48-8.33-6.02,0-10.45,2.3-12.75,5.49h-.44v-3.28c0-3.72,4.87-8.5,13.91-8.5,10.19,0,15.68,5.32,15.68,15.15v12.58c0,8.15-4.43,14.08-15.68,14.08ZM265.04,245.22c0-.86-.7-1.56-1.56-1.56h-3.93c-8.06,0-11.78,2.48-11.78,6.91,0,3.54,3.54,6.29,8.68,6.29,6.11,0,8.59-2.39,8.59-8.24v-3.4Z"/>
  <path class="cls-2" d="M323.86,262.43c-2.21,0-4.78-1.68-4.78-5.23v-17.83c0-.86-.7-1.56-1.56-1.56h-23.8c-.86,0-1.56.7-1.56,1.56v21.5c0,.86-.7,1.56-1.56,1.56h-1.09c-2.13,0-4.61-1.59-4.61-5.23v-46.71c0-.86.7-1.56,1.56-1.56h2.33c1.59,0,3.37,1.24,3.37,3.63v17.04c0,.86.7,1.56,1.56,1.56h23.8c.86,0,1.56-.7,1.56-1.56v-19.1c0-.86.7-1.56,1.56-1.56h1.89c1.95,0,3.72,1.51,3.72,3.63v48.3c0,.86-.7,1.56-1.56,1.56h-.83Z"/>
  <path class="cls-2" d="M347.99,215.17c-3.54,3.1-8.01.5-8.01-3.23,0-2.57,2.13-4.78,4.61-4.78,3.51,0,6.03,4.14,3.71,7.66-.08.13-.19.25-.31.35ZM353.09,262.79c-7.97,0-12.05-3.9-12.05-11.96v-27.13c0-.86.7-1.56,1.56-1.56h.47c2.39,0,4.78,1.86,4.78,5.4v22.32c0,5.05,2.48,6.64,6.29,6.64h1.36c.86,0,1.56.7,1.56,1.56v.65c0,2.57-1.59,4.08-3.99,4.08Z"/>
  <path class="cls-2" d="M381.28,262.67c-.29.36-.74.56-1.2.56h-1.13c-1.33,0-2.39-.53-3.45-2.04-7.36-10.83-12.46-24.32-14.68-37.24-.16-.95.58-1.82,1.55-1.82h1.61c2.66,0,3.72,1.95,4.08,3.9,1.64,8.51,4.48,18.16,9.8,27.19.62,1.05,2.13,1.04,2.73-.02,5.02-8.81,9.13-22.46,10.55-29.81.14-.74.78-1.26,1.53-1.26h1.08c1.95,0,2.92,1.42,2.92,3.28s-.53,4.07-.8,5.14c-2.16,9.07-8.45,24.63-14.59,32.13Z"/>
  <path class="cls-2" d="M418.99,245.42h-8.09c-.98,0-1.75.9-1.54,1.86,1.25,5.72,5.74,9.56,12.56,9.56,6.2,0,9.92-1.95,12.22-4.16h.35v3.01c0,4.25-4.52,7.53-13.55,7.53-11.07,0-18.87-8.59-18.87-20.11,0-13.02,8.15-21.7,18.78-21.7,7.88,0,15.24,5.94,15.24,14,0,7.09-3.28,10.01-17.1,10.01ZM420.14,227.53c-6.73,0-10.81,5.58-11.07,10.81h0c-.05.91.69,1.67,1.6,1.65l7.44-.14c9.66-.18,11.34-1.06,11.34-4.08,0-4.34-3.01-8.24-9.3-8.24Z"/>
</svg>