<?xml version="1.0" encoding="UTF-8"?>
<svg id="Layer_1" data-name="Layer 1" xmlns="http://www.w3.org/2000/svg" viewBox="100 100 270 270">
  <path fill="#8dc641" d="M256.9,173.05c1.47,1.5,1.39,3.8.42,5.03-4.87,6.17-22.34,7.17-32.36,6.33-28.65-2.39-44.97-25.95-55.72-50.63-1.55-3.55-1.78-8.41,2.09-10.34,3.64-1.8,7.34,1.27,9.07,4.37,4.18,7.49,8.51,14.16,13.59,20.88,12.59,16.67,31.92,25.1,52.75,21.59,3.47-.58,7.7.24,10.17,2.76Z"/>
  <path fill="#3cb64b" d="M299.77,222.3c-.56,2.02-2.58,3.11-4.13,2.89-7.78-1.1-17.44-15.7-21.76-24.78-12.35-25.96-.21-51.92,15.71-73.63,2.29-3.12,6.37-5.77,9.98-3.39,3.39,2.23,2.6,6.98.79,10.03-4.37,7.38-7.95,14.48-11.21,22.25-8.07,19.27-5.63,40.21,7.89,56.45,2.25,2.7,3.66,6.78,2.73,10.17Z"/>
  <path fill="#d9e127" d="M278.23,285.42c-2.02.56-4-.62-4.6-2.06-3.05-7.24,4.51-23.03,10.08-31.4,15.92-23.94,44.44-26.86,71.24-24.35,3.86.36,8.23,2.5,8.04,6.82-.18,4.06-4.65,5.81-8.21,5.83-8.58.04-16.51.62-24.84,1.82-20.68,2.98-37.39,15.83-44.38,35.77-1.16,3.32-3.93,6.63-7.33,7.57Z"/>
  <path fill="#8dc641" d="M212.94,296.91c-1.48-1.48-1.43-3.78-.48-5.02,4.8-6.22,22.26-7.42,32.29-6.7,28.67,2.06,45.26,25.44,56.29,50,1.59,3.53,1.88,8.39-1.98,10.36-3.62,1.84-7.35-1.18-9.12-4.27-4.26-7.45-8.67-14.06-13.82-20.72-12.78-16.53-32.2-24.74-52.99-21-3.46.62-7.7-.16-10.2-2.65Z"/>
  <path fill="#3cb64b" d="M171.47,247.24c.57-2.02,2.6-3.1,4.15-2.87,7.77,1.15,17.34,15.82,21.59,24.92,12.18,26.04-.14,51.92-16.2,73.52-2.31,3.11-6.41,5.73-10.01,3.32-3.37-2.26-2.55-7-.72-10.04,4.42-7.35,8.05-14.42,11.35-22.17,8.2-19.22,5.89-40.17-7.51-56.5-2.23-2.72-3.62-6.8-2.66-10.19Z"/>
  <path fill="#d9e127" d="M192.79,185.15c2.04-.49,3.97.75,4.53,2.22,2.8,7.34-5.3,22.86-11.15,31.03-16.74,23.37-45.34,25.31-72.04,21.88-3.84-.49-8.14-2.78-7.8-7.1.32-4.05,4.85-5.65,8.4-5.54,8.58.26,16.52-.05,24.89-.96,20.77-2.26,37.91-14.53,45.58-34.21,1.28-3.27,4.16-6.49,7.58-7.31Z"/>
  <path fill="#8dc641" d="M327.26,190.33c14.47,8.12,26.36-2.68,29.98,7.12.95,2.58-.28,7.18-3.78,8.32-10.28,3.34-21.77,2.96-31.34-2.02-11.33-5.9-17.62-17.04-16.88-29.85.61-10.64,5.83-20.41,13.66-27.39,2.82-2.51,7.17-1.84,9.27.43,2.45,2.64,2.36,6.58-.05,9.5-4.37,5.29-8,11.25-8.76,18.22-.72,6.61,2.17,12.45,7.9,15.67Z"/>
  <path fill="#3cb64b" d="M319.8,293.15c.63,16.58,16.04,21.08,9.58,29.29-1.7,2.16-6.27,3.51-9.07,1.12-8.21-7.03-13.89-17.02-14.63-27.78-.88-12.74,5.34-23.92,16.65-29.97,9.39-5.03,20.45-5.68,30.49-2.65,3.62,1.09,5.31,5.16,4.47,8.13-.97,3.47-4.39,5.45-8.13,4.91-6.8-.97-13.77-.95-20.12,2.04-6.02,2.83-9.49,8.36-9.24,14.91Z"/>
  <path fill="#d9e127" d="M227.16,336.44c-14.15,8.66-10.54,24.3-20.86,22.68-2.72-.43-6.13-3.76-5.41-7.36,2.11-10.6,8.05-20.44,17.07-26.35,10.68-7,23.47-7.04,34.29-.14,8.98,5.73,14.96,15.06,17.22,25.3.82,3.69-1.9,7.15-4.9,7.88-3.5.85-6.9-1.16-8.26-4.69-2.48-6.4-5.91-12.47-11.62-16.55-5.42-3.86-11.93-4.19-17.53-.76Z"/>
  <path fill="#8dc641" d="M143.68,278.81c-14.46-8.14-26.36,2.65-29.97-7.15-.95-2.58.29-7.18,3.79-8.32,10.28-3.33,21.77-2.94,31.33,2.06,11.32,5.91,17.6,17.06,16.84,29.87-.63,10.64-5.85,20.4-13.69,27.37-2.82,2.51-7.17,1.83-9.27-.44-2.44-2.64-2.35-6.59.06-9.5,4.38-5.29,8.01-11.24,8.78-18.21.73-6.61-2.16-12.46-7.88-15.68Z"/>
  <path fill="#3cb64b" d="M151.15,176.75c.01-16.59-15.22-21.68-8.44-29.63,1.78-2.09,6.4-3.27,9.11-.77,7.94,7.34,13.22,17.54,13.55,28.33.39,12.76-6.25,23.7-17.79,29.31-9.58,4.66-20.65,4.89-30.57,1.47-3.57-1.23-5.11-5.36-4.16-8.3,1.11-3.43,4.59-5.27,8.31-4.6,6.75,1.23,13.72,1.48,20.18-1.27,6.12-2.6,9.8-7.98,9.81-14.55Z"/>
  <path fill="#d9e127" d="M243.51,132.84c14.18-8.61,10.62-24.27,20.93-22.62,2.71.44,6.12,3.77,5.39,7.38-2.14,10.59-8.12,20.42-17.16,26.3-10.7,6.97-23.49,6.97-34.29.04-8.96-5.76-14.91-15.1-17.14-25.35-.8-3.69,1.92-7.15,4.93-7.87,3.5-.84,6.89,1.18,8.25,4.71,2.46,6.41,5.87,12.49,11.57,16.58,5.4,3.88,11.92,4.23,17.52.82Z"/>
  <path fill="#3cb64b" d="M232.56,103.3c3.87-1.72,7.46.35,8.87,3.63,1.28,2.96-.23,6.73-3.1,8.08-3.41,1.61-7.43.22-8.89-2.76s-.57-7.31,3.11-8.94Z"/>
  <path fill="#8dc641" d="M123.9,166.03c3.87-1.72,7.46.35,8.87,3.63,1.28,2.96-.23,6.73-3.1,8.08-3.41,1.61-7.43.22-8.89-2.76s-.57-7.31,3.11-8.94Z"/>
  <path fill="#d9e127" d="M123.75,291.77c3.87-1.72,7.46.35,8.87,3.63,1.28,2.96-.23,6.73-3.1,8.08-3.41,1.61,7.43.22-8.89-2.76s-.57-7.31,3.11-8.94Z"/>
  <path fill="#3cb64b" d="M232.71,354.49c3.87-1.72,7.46.35,8.87,3.63,1.28,2.96-.23,6.73-3.1,8.08-3.41,1.61-7.43.22-8.89-2.76s-.57-7.31,3.11-8.94Z"/>
  <path fill="#8dc641" d="M341.81,291.47c3.87-1.72,7.46.35,8.87,3.63,1.28,2.96-.23,6.73-3.1,8.08-3.41,1.61-7.43.22-8.89-2.76s-.57-7.31,3.11-8.94Z"/>
  <path fill="#d9e127" d="M341.37,165.8c3.87-1.72,7.46.35,8.87,3.63,1.28,2.96-.23,6.73-3.1,8.08-3.41,1.61-7.43.22-8.89-2.76s-.57-7.31,3.11-8.94Z"/>
</svg>